<svg width="270" height="53" viewBox="0 0 270 53" fill="none" xmlns="http://www.w3.org/2000/svg">
<g clip-path="url(#clip0_8005_1810)">
<path d="M69.858 6.27708C69.7642 6.39197 69.7642 6.54863 69.858 6.70007C70.3166 7.48863 70.5667 8.41295 70.5511 9.47306C70.5146 11.3008 69.9153 13.092 68.7637 14.8415C68.6855 14.9772 68.5553 14.9981 68.3989 14.8989L66.8044 13.8963C66.6533 13.8023 66.6116 13.6665 66.7262 13.5307C67.6277 12.1259 68.1488 10.8569 68.2426 9.7185C68.2791 9.35295 68.2426 9.00828 68.1644 8.67929C68.1436 8.60095 68.128 8.58529 68.0707 8.58529C68.0133 8.5644 67.956 8.58528 67.9195 8.64273C65.1942 11.8753 62.9639 13.515 61.2339 13.5307C60.1969 13.5307 59.4465 13.2591 58.988 12.763C58.5086 12.246 58.3158 11.4523 58.3731 10.3974C58.4877 8.2824 59.582 6.62696 61.6768 5.46764C61.8331 5.37364 61.9269 5.23786 61.9269 5.06553L61.9843 1.98444C61.9843 1.8121 62.0624 1.71288 62.2552 1.71288H64.1208C64.2927 1.71288 64.3917 1.80688 64.3917 1.98444C64.3917 2.37088 64.3709 3.15943 64.3552 4.31353C64.3552 4.37098 64.3761 4.42842 64.4334 4.48587C64.5116 4.52242 64.5689 4.5642 64.6262 4.5642C65.7778 4.4702 66.7783 4.60075 67.6225 4.92975C67.7736 5.00808 67.9091 4.96631 68.0238 4.81486C68.2947 4.50675 68.4823 4.21953 68.6386 3.98454C68.7533 3.84876 68.8888 3.8122 69.0399 3.92709L70.5406 4.94542C70.6918 5.03942 70.7126 5.1752 70.598 5.33186C70.426 5.54597 70.1967 5.85408 69.8684 6.27708H69.858ZM61.8071 7.91162C61.7498 7.89073 61.7133 7.91162 61.6716 7.94818C60.9421 8.6584 60.5982 9.50961 60.5982 10.4705C60.5982 11.0084 60.8274 11.2799 61.2495 11.2382C61.4006 11.2382 61.5205 11.1807 61.6508 11.0867C61.7654 10.9927 61.8436 10.8935 61.8436 10.7577C61.8436 10.1049 61.8436 9.19628 61.88 8.00562C61.88 7.96907 61.8436 7.92729 61.8019 7.91162H61.8071ZM66.226 6.72096C65.6892 6.5643 65.1525 6.50685 64.5741 6.54863C64.4021 6.56952 64.3031 6.66352 64.3031 6.85674L64.2667 8.93517C64.2667 8.99262 64.2875 9.02917 64.3448 9.05006C64.3448 9.07095 64.3657 9.07095 64.4021 9.07095C64.423 9.07095 64.4386 9.07095 64.4386 9.05006C65.09 8.41295 65.7257 7.73929 66.3041 7.02907C66.4396 6.87241 66.3979 6.77841 66.226 6.72096Z" fill="#273B73"/>
<path d="M84.2611 14.9981C84.2402 15.1705 84.1256 15.2488 83.9328 15.2488L81.838 15.2697C81.7598 15.2697 81.7025 15.2488 81.666 15.2122C81.6087 15.1548 81.6087 15.0974 81.6087 15.019C82.1454 12.4758 82.432 10.4757 82.5102 8.97694C82.531 8.38162 82.2601 8.07351 81.6817 8.05262C81.2804 8.05262 80.874 8.07351 80.4519 8.07351C80.2799 8.09439 80.1653 8.18839 80.108 8.38161C79.6859 10.0579 79.0137 12.3087 78.1122 15.1548C78.034 15.3271 77.9194 15.3846 77.7682 15.3271L75.9444 14.7318C75.7725 14.6744 75.7151 14.5751 75.7933 14.4028C76.6166 11.8805 77.2159 9.95872 77.5807 8.62706C77.6015 8.54873 77.5807 8.51217 77.5233 8.45473C77.4869 8.41817 77.4295 8.39728 77.3722 8.41817L76.0069 8.5905C75.835 8.61139 75.736 8.53306 75.736 8.33984L75.6787 6.89851C75.6578 6.70529 75.7568 6.61129 75.9288 6.5904L77.8881 6.39718C78.0809 6.39718 78.1955 6.30318 78.2164 6.12563C78.5238 4.85664 78.8313 3.45187 79.1179 1.91132C79.1544 1.73899 79.269 1.66066 79.4462 1.69721L81.27 2.02621C81.442 2.0471 81.4993 2.16199 81.4628 2.35521C81.2492 3.35787 81.0042 4.54853 80.6968 5.89585C80.6968 5.97419 80.6968 6.03163 80.7333 6.08907C80.7697 6.14652 80.8271 6.16741 80.9052 6.16741C80.9417 6.16741 81.27 6.14652 81.8641 6.14652C82.8437 6.12563 83.5941 6.36063 84.1517 6.79929C84.7457 7.30062 85.0167 8.03173 84.9802 8.97172C84.9229 10.6637 84.6727 12.669 84.2715 14.9981H84.2611ZM88.2944 3.27431C88.2735 3.44665 88.1797 3.54587 87.9869 3.54587H87.1219C86.9499 3.54587 86.8509 3.45187 86.8718 3.27431L87.0073 1.52488C87.0281 1.33166 87.1219 1.25333 87.3147 1.25333H88.2006C88.3725 1.25333 88.4507 1.33166 88.4507 1.52488L88.2996 3.27431H88.2944ZM89.8889 10.1467L88.2735 10.3974C88.0807 10.4339 87.9869 10.3608 87.9452 10.1676C87.9087 9.88038 87.6378 8.22495 87.1375 5.22219C87.1011 5.02897 87.174 4.91408 87.3668 4.87753L89.0187 4.62686C89.1906 4.59031 89.3053 4.66342 89.347 4.84097C89.5189 5.84363 89.7899 7.49907 90.113 9.84383C90.1338 10.0162 90.0557 10.131 89.8837 10.1519L89.8889 10.1467ZM90.3475 3.27431C90.3475 3.44665 90.2328 3.54587 90.0609 3.54587H89.175C89.003 3.54587 88.904 3.45187 88.9249 3.27431L89.076 1.52488C89.0968 1.33166 89.1906 1.25333 89.3834 1.25333H90.2276C90.4204 1.25333 90.5142 1.33166 90.4986 1.52488L90.3475 3.27431Z" fill="#273B73"/>
<path d="M107.403 11.3217C107.403 11.5149 107.309 11.6089 107.132 11.5933C106.804 11.5724 106.538 11.5567 106.324 11.5567C106.131 11.5567 106.038 11.6507 105.996 11.8283C105.668 13.562 104.745 14.4864 103.25 14.5804C102.541 14.6378 101.905 14.4446 101.369 14.0007C100.832 13.5411 100.561 12.9615 100.603 12.2513C100.639 10.6898 101.697 9.86472 103.75 9.78639C103.943 9.78639 104.021 9.69239 104 9.51483C103.943 8.33984 103.406 7.78107 102.385 7.8594C101.791 7.89595 100.712 8.14662 99.1592 8.62706C98.9872 8.66362 98.8882 8.79939 98.8882 8.99261L98.5808 14.9198C98.5808 15.113 98.4661 15.207 98.2942 15.207H96.3922C96.1993 15.207 96.1212 15.113 96.1212 14.9355C96.1785 14.1469 96.2567 12.434 96.3922 9.77594C96.3922 9.7185 96.3713 9.66105 96.314 9.61928C96.2567 9.59839 96.2202 9.59839 96.142 9.61928C95.8554 9.73417 95.3917 9.9065 94.7976 10.1206C94.6256 10.1781 94.5266 10.1206 94.4693 9.94827L94.141 8.60095C94.0993 8.42862 94.1775 8.29284 94.3703 8.2354C94.5631 8.15706 94.7716 8.07873 95.006 8.00562C95.2145 7.92729 95.3917 7.8124 95.5063 7.66095L96.4286 6.42852C96.5224 6.29274 96.585 6.15696 96.585 6.00552C96.585 5.92719 96.585 5.86974 96.5276 5.83319C96.4912 5.79663 96.4338 5.79663 96.3557 5.79663L94.8601 5.93241C94.6673 5.9533 94.5735 5.85408 94.5735 5.66086L94.5527 4.25609C94.5527 4.08375 94.6465 3.98453 94.8237 3.96887L96.4391 3.85398C96.611 3.83309 96.71 3.73909 96.7257 3.56676L96.8195 1.15933C96.8403 0.966107 96.9341 0.872108 97.1061 0.872108L99.0289 0.851219C99.1071 0.851219 99.1644 0.887774 99.2009 0.945219C99.2582 1.00266 99.279 1.06011 99.2582 1.13844C99.2582 1.54055 99.2217 2.29254 99.1644 3.37354C99.1644 3.54587 99.2425 3.64509 99.4354 3.64509L100.071 3.58765C100.264 3.56676 100.358 3.66598 100.358 3.8592L100.379 5.18564C100.379 5.37886 100.285 5.47286 100.108 5.49375L99.7636 5.5303C99.5708 5.55119 99.4353 5.60863 99.3416 5.70263L99.1904 5.97419C99.0966 6.16741 99.0341 6.33974 99.0341 6.47552C99.0133 6.55385 99.0341 6.61129 99.0914 6.64785C99.1279 6.68441 99.1852 6.68441 99.2425 6.66874C100.665 6.2823 101.702 6.07341 102.374 6.03163C103.526 5.9533 104.448 6.24574 105.141 6.86196C105.814 7.49907 106.178 8.40251 106.236 9.55661C106.236 9.72894 106.329 9.80728 106.486 9.80728L107.215 9.82816C107.408 9.82816 107.502 9.92216 107.486 10.1154L107.408 11.3269L107.403 11.3217ZM103.693 11.494C103.463 11.494 103.328 11.494 103.25 11.5149C102.713 11.5358 102.442 11.8022 102.442 12.2826C102.463 12.7056 102.692 12.9197 103.151 12.8779C103.594 12.8779 103.859 12.4915 103.938 11.7604C103.958 11.588 103.88 11.4888 103.687 11.4888L103.693 11.494Z" fill="#273B73"/>
<path d="M121.457 13.8597C121.342 14.0111 121.207 14.032 121.056 13.9171L119.633 12.9145C119.482 12.8205 119.461 12.7004 119.576 12.5489C120.691 10.9875 121.228 9.64017 121.207 8.52784C121.186 7.73929 120.842 7.10218 120.191 6.64263C120.039 6.52774 119.92 6.5643 119.862 6.73663C119.289 8.19884 118.632 9.45217 117.924 10.4705C116.923 11.9118 115.964 12.6429 115.063 12.6429C114.219 12.6429 113.562 12.3139 113.083 11.6612C112.661 11.0658 112.447 10.3347 112.468 9.46783C112.489 7.92729 113.026 6.65829 114.099 5.67652C115.115 4.7522 116.423 4.29264 117.976 4.27175C119.492 4.25087 120.743 4.63731 121.723 5.3893C122.796 6.21963 123.338 7.37373 123.317 8.83595C123.317 10.5488 122.681 12.2251 121.452 13.8597H121.457ZM117.752 6.02641C116.871 6.12041 116.079 6.48596 115.428 7.15963C114.776 7.83329 114.469 8.62184 114.505 9.52528C114.505 10.1206 114.677 10.4287 114.985 10.4287C115.136 10.4287 115.313 10.3504 115.485 10.1781C116.444 9.21717 117.252 7.9064 117.945 6.25096C118.002 6.09952 117.945 6.02119 117.752 6.02119V6.02641Z" fill="#273B73"/>
<path d="M139.685 3.94798C139.685 4.12031 139.591 4.19864 139.414 4.19864H137.877C137.684 4.19864 137.606 4.29264 137.59 4.4702L137.512 6.10474C137.491 6.18308 137.512 6.24052 137.569 6.29797C137.626 6.33452 137.684 6.3763 137.762 6.3763L139.106 6.31885C139.185 6.29797 139.242 6.31885 139.299 6.3763C139.336 6.41285 139.377 6.4703 139.377 6.54863L139.356 7.93251C139.356 8.10484 139.263 8.20407 139.07 8.20407L137.668 8.2824C137.496 8.30329 137.397 8.3764 137.382 8.55395C137.361 8.76284 137.345 9.22761 137.303 9.93783C137.303 10.1311 137.382 10.2251 137.574 10.2251H139.075C139.247 10.2251 139.325 10.3191 139.325 10.4966L139.268 11.9014C139.247 12.0737 139.153 12.1729 138.981 12.152C138.825 12.152 138.288 12.1312 137.387 12.1155C137.215 12.1155 137.116 12.2095 137.1 12.3662C137.001 13.5203 136.735 14.3871 136.313 14.9668C135.813 15.6979 135.005 16.0426 133.932 16.0426C133.088 16.0426 132.395 15.771 131.858 15.2331C131.3 14.6952 131.035 14.0007 131.05 13.1547C131.071 11.3478 132.259 10.3661 134.604 10.2303C134.776 10.2094 134.891 9.97961 134.932 9.55661C134.953 9.26939 134.953 8.97695 134.953 8.68973C134.974 8.6114 134.953 8.53829 134.896 8.49651C134.839 8.43906 134.76 8.41817 134.703 8.41817L132.244 8.55395C132.165 8.55395 132.087 8.53306 132.03 8.47562C131.973 8.41817 131.952 8.36073 131.952 8.2824L131.973 6.93507C131.973 6.74185 132.066 6.64785 132.259 6.62696L134.776 6.51208C134.969 6.51208 135.063 6.39719 135.083 6.22485L135.162 4.51198C135.162 4.41798 135.141 4.33964 135.083 4.2822C135.047 4.24564 134.99 4.20387 134.891 4.20387L132.452 4.22476C132.374 4.22476 132.301 4.20387 132.28 4.16731C132.244 4.10987 132.223 4.05242 132.223 3.95842L132.301 2.57454C132.301 2.40221 132.395 2.32388 132.587 2.32388H134.99C135.162 2.32388 135.261 2.22988 135.276 2.05232L135.354 0.454335C135.354 0.261114 135.448 0.167114 135.625 0.167114H137.548C137.741 0.167114 137.819 0.261114 137.819 0.454335L137.741 2.01577C137.741 2.10977 137.762 2.1881 137.798 2.24555C137.835 2.2821 137.892 2.32388 137.97 2.32388L139.528 2.30299C139.622 2.30299 139.7 2.32388 139.737 2.36043C139.794 2.39699 139.815 2.47532 139.794 2.56932L139.7 3.9532L139.685 3.94798ZM134.422 12.1259C133.614 12.2199 133.192 12.5698 133.135 13.1651C133.114 13.4158 133.171 13.6247 133.286 13.7814C133.421 13.9537 133.614 14.032 133.864 14.032C134.323 14.0111 134.594 13.4733 134.672 12.3975C134.672 12.2252 134.594 12.1259 134.422 12.1259Z" fill="#273B73"/>
<path d="M158.428 5.3162C158.408 5.48853 158.314 5.58775 158.121 5.58775H154.088C153.916 5.58775 153.817 5.66608 153.801 5.8593L153.343 9.17017C153.343 9.2485 153.363 9.30595 153.4 9.3425C153.436 9.39995 153.494 9.42084 153.572 9.42084C154.703 9.3425 155.589 9.55661 156.224 10.0005C156.933 10.5227 157.261 11.3269 157.24 12.4236C157.204 13.4994 156.667 14.6952 155.646 16.0217C155.552 16.1575 155.417 16.1731 155.281 16.0582L153.801 14.9616C153.65 14.8467 153.629 14.7109 153.723 14.5595C154.416 13.5411 154.781 12.81 154.796 12.3661C154.796 12.058 154.718 11.8283 154.525 11.6716C154.354 11.5149 154.103 11.4418 153.775 11.4418C153.332 11.4627 152.41 11.6142 150.987 11.9432C150.815 11.9797 150.737 11.9066 150.737 11.7134V10.2512L151.352 5.86452C151.373 5.78619 151.352 5.70786 151.295 5.65041C151.258 5.61386 151.201 5.59297 151.102 5.59297H149.393C149.315 5.59297 149.236 5.57208 149.2 5.53553C149.163 5.49897 149.143 5.42064 149.143 5.32142L149.221 3.9532C149.221 3.75998 149.32 3.68165 149.507 3.68165H151.388C151.56 3.68165 151.659 3.58765 151.675 3.39443L152.061 0.793779C152.082 0.621447 152.196 0.543114 152.389 0.543114H154.234C154.406 0.543114 154.484 0.621447 154.463 0.793779L154.119 3.39443C154.098 3.58765 154.176 3.68165 154.348 3.68165H158.225C158.418 3.68165 158.512 3.75998 158.496 3.9532L158.418 5.32142L158.428 5.3162Z" fill="#273B73"/>
<path d="M177.381 6.58518C177.381 6.79929 177.287 6.89329 177.094 6.89329L173.655 7.00818C173.483 7.00818 173.405 7.10218 173.405 7.27973L173.384 11.3008C173.384 11.494 173.29 11.6089 173.113 11.6298L168.928 12.1468C168.715 12.1834 168.642 12.2826 168.678 12.4758C168.85 13.1286 169.08 13.7657 169.387 14.4028C169.444 14.5751 169.408 14.69 169.272 14.7892L167.6 15.677C167.428 15.7553 167.292 15.7345 167.214 15.5621C166.636 14.3871 166.255 13.1547 166.083 11.9066C166.005 11.447 166.234 11.1964 166.735 11.118L170.653 10.5593C170.846 10.5384 170.94 10.4235 170.94 10.2512V7.38418C170.94 7.21184 170.846 7.13351 170.669 7.13351L165.349 7.30584C165.27 7.30584 165.197 7.28495 165.135 7.22751C165.078 7.19096 165.057 7.13351 165.057 7.05518L165.078 5.6713C165.078 5.49897 165.156 5.39974 165.349 5.39974L170.669 5.20652C170.862 5.18563 170.956 5.09163 170.956 4.9193V1.75466C170.956 1.58232 171.034 1.50399 171.227 1.50399H173.129C173.321 1.50399 173.399 1.58232 173.399 1.77554V4.83575C173.399 4.92975 173.42 4.98719 173.457 5.04463C173.514 5.08119 173.592 5.10208 173.665 5.10208L177.104 4.9663C177.276 4.9663 177.375 5.04463 177.375 5.23786V6.58518H177.381Z" fill="#273B73"/>
<path d="M184.775 12.9771L181.508 13.3061C181.315 13.327 181.237 13.2278 181.221 13.0555L181.164 11.8021C181.143 11.5515 181.278 9.05005 181.565 4.29786C181.565 4.12553 181.659 4.02631 181.836 4.02631L183.738 4.00542C183.816 4.00542 183.889 4.04197 183.931 4.09942C183.973 4.15686 183.967 4.2352 183.967 4.31353C183.832 6.60607 183.696 8.79939 183.623 10.9144C183.623 11.0084 183.644 11.0867 183.681 11.1285C183.738 11.165 183.795 11.165 183.889 11.165L184.676 11.0867C184.848 11.0658 184.947 11.1442 184.947 11.3165L185.025 12.6847C185.046 12.857 184.968 12.9719 184.775 12.9719V12.9771ZM196.203 6.4494C196.203 6.64263 196.109 6.73662 195.932 6.73662L194.066 6.79407C193.894 6.79407 193.795 6.88807 193.78 7.08129L193.686 9.35294C193.686 9.54616 193.764 9.6245 193.936 9.6245H195.28C195.473 9.6245 195.567 9.71849 195.551 9.91172L195.494 11.2799C195.473 11.4523 195.4 11.5515 195.223 11.5515L193.821 11.5306C193.628 11.5306 193.535 11.6246 193.535 11.8021L193.477 12.34C193.363 13.3218 193.055 14.0895 192.555 14.6326C191.977 15.2279 191.231 15.536 190.288 15.536C189.423 15.536 188.714 15.2645 188.157 14.7266C187.578 14.1887 187.313 13.4941 187.334 12.6481C187.37 10.7786 188.584 9.78116 190.981 9.6245C191.174 9.6245 191.268 9.5305 191.268 9.35294L191.346 7.15962C191.367 7.08129 191.346 7.00818 191.289 6.9664C191.231 6.90896 191.174 6.88807 191.096 6.88807L188.965 6.9664C188.772 6.9664 188.694 6.88807 188.694 6.69485V5.32663C188.694 5.1543 188.772 5.05508 188.965 5.03941L191.174 4.96108C191.346 4.96108 191.445 4.86708 191.445 4.68953L191.539 1.80166C191.539 1.60843 191.638 1.5301 191.825 1.5301L193.727 1.55099C193.92 1.55099 194.014 1.62932 193.998 1.82254L193.884 4.61119C193.884 4.68953 193.905 4.74697 193.962 4.80441C194.019 4.86186 194.077 4.88275 194.155 4.86186L195.942 4.80441C196.114 4.80441 196.213 4.89841 196.213 5.07597V6.44418L196.203 6.4494ZM191.033 11.6873C191.013 11.6507 190.94 11.6298 190.841 11.6298C190.497 11.6507 190.168 11.7238 189.897 11.917C189.569 12.1103 189.397 12.3766 189.397 12.7056C189.376 12.9928 189.454 13.2069 189.606 13.3427C189.762 13.4994 189.991 13.5568 190.278 13.5568C190.736 13.5359 191.007 12.998 191.085 11.9223C191.085 11.8074 191.065 11.7499 191.028 11.6925L191.033 11.6873ZM196.239 2.80954C196.239 3.00276 196.124 3.09676 195.952 3.09676H195.087C194.879 3.09676 194.801 3.00276 194.837 2.8252L194.988 1.05488C194.988 0.861661 195.082 0.767662 195.259 0.767662H196.14C196.312 0.767662 196.411 0.861661 196.39 1.05488L196.239 2.80432V2.80954ZM198.313 2.80954C198.292 3.00276 198.198 3.09676 198.006 3.09676H197.141C196.948 3.09676 196.87 3.00276 196.87 2.8252L197.021 1.05488C197.042 0.861661 197.135 0.767662 197.328 0.767662H198.209C198.381 0.767662 198.459 0.861661 198.438 1.05488L198.303 2.80432L198.313 2.80954Z" fill="#273B73"/>
<path d="M211.429 15.1496C210.679 15.3637 210.064 15.4786 209.626 15.4942C208.396 15.5151 207.609 14.7997 207.281 13.3793C207.245 13.2069 207.13 13.1286 206.953 13.186L205.473 13.6299C205.301 13.6874 205.165 13.7866 205.051 13.938L203.977 15.442C203.863 15.5987 203.727 15.6143 203.592 15.4995L202.054 14.2879C201.898 14.173 201.883 14.0372 201.997 13.8858L206.166 8.22495C206.166 8.22495 206.187 8.20406 206.202 8.16751C206.182 8.14662 206.166 8.11006 206.145 8.07351C206.124 8.03695 206.109 8.03695 206.051 8.03695L202.748 8.30851C202.555 8.3294 202.477 8.23017 202.477 8.03695L202.44 6.68963C202.44 6.49641 202.534 6.40241 202.711 6.38152C205.285 6.15174 207.802 5.97941 210.257 5.84363C210.449 5.84363 210.543 5.92197 210.543 6.11519V7.46251C210.543 7.65573 210.465 7.74973 210.272 7.77062L209.814 7.79151C209.642 7.79151 209.485 7.88551 209.371 8.02129L206.718 11.6612C206.718 11.6612 206.697 11.682 206.697 11.6977C206.697 11.776 206.755 11.8126 206.833 11.7917L208.813 11.1755C208.964 11.118 209.063 11.1755 209.1 11.3478C209.157 11.6194 209.214 11.9275 209.292 12.293C209.371 12.6377 209.428 12.8518 209.449 12.8884C209.543 13.139 209.699 13.233 209.892 13.2174C210.105 13.1599 210.392 13.0816 210.757 12.9458C210.95 12.8884 211.064 12.9458 211.122 13.0973L211.622 14.8101C211.679 14.9825 211.601 15.0974 211.429 15.1548V15.1496ZM208.146 4.39186L206.265 4.72086C206.072 4.74175 205.978 4.66342 205.937 4.49109L205.322 0.678887C205.285 0.464778 205.358 0.349889 205.551 0.334223L207.396 2.73355e-06C207.646 -0.0365526 207.875 0.579666 208.089 1.80688C208.167 2.57454 208.261 3.32654 208.36 4.07853C208.396 4.25086 208.323 4.36575 208.151 4.38664L208.146 4.39186Z" fill="#273B73"/>
<path d="M11.7716 48.3496L2.01666 43.2527C1.70921 43.1013 1.48514 43.2162 1.32881 43.5191L0.0729747 46.5009C-0.0781427 46.8821 -0.00518947 47.1119 0.380421 47.2268L10.7815 50.7936C11.1254 50.945 11.3547 50.8301 11.4693 50.5272L12.079 49.0389C12.1936 48.6942 12.079 48.4645 11.7716 48.3496Z" fill="#231815"/>
<path d="M12.1155 36.9495L3.07972 33.6648C2.73579 33.5133 2.50651 33.6282 2.35539 33.9311L1.43827 36.4534C1.32363 36.7981 1.40179 37.0279 1.74571 37.1428L10.7763 40.5059C11.1202 40.6573 11.3495 40.5424 11.5006 40.1612L12.4177 37.6389C12.5324 37.336 12.4542 37.1062 12.1155 36.9495Z" fill="#231815"/>
<path d="M2.28246 27.2467L12.6887 31.0641C13.0326 31.179 13.2619 31.1007 13.3766 30.756L14.5595 27.7011C14.6741 27.3929 14.5595 27.1684 14.2155 27.0535L3.92391 23.2361C3.57998 23.1212 3.3507 23.1995 3.23606 23.5442L1.98022 26.5626C1.86558 26.8707 1.98022 27.0953 2.28767 27.2519L2.28246 27.2467Z" fill="#231815"/>
<path d="M50.5775 35.1897L31.865 35.1531C31.5211 35.1531 31.2918 35.3463 31.2918 35.6858L31.099 38.3961C31.0625 38.7408 31.2501 38.9288 31.594 38.9288L44.6683 38.8922C45.0487 38.8922 45.1633 39.0436 45.0122 39.3883C43.8293 42.2135 42.8705 44.1039 40.5047 47.655C40.3119 47.9631 40.3536 48.2295 40.6558 48.4175L42.1827 49.9998C42.4901 50.2296 42.7559 50.193 42.9435 49.8484C46.8256 46.0362 48.8944 42.9394 50.7234 38.0514C50.8745 37.7433 50.9527 37.4039 50.9527 36.9809L51.0673 35.6806C51.1038 35.3359 50.9162 35.1844 50.5723 35.1844L50.5775 35.1897Z" fill="#231815"/>
<path d="M34.6476 28.7716H49.629C50.0094 28.7716 50.2023 28.5784 50.2387 28.1972L50.4315 25.4868C50.4315 25.1422 50.2804 24.9542 49.9 24.9542H34.8821C34.5381 24.9542 34.3506 25.1474 34.3506 25.4868L34.1577 28.1972C34.1213 28.5784 34.2724 28.7716 34.6528 28.7716H34.6476Z" fill="#231815"/>
<path d="M66.3301 39.7434C66.5229 40.0515 66.7105 40.0672 67.1847 39.874C69.8423 38.8243 71.5358 37.9 73.4326 36.7407C73.5473 36.6728 73.6723 36.5944 73.7974 36.5161L73.4952 49.7439C73.4952 50.1251 73.6463 50.2766 73.9902 50.2766H77.7629C78.1433 50.2766 78.3361 50.0834 78.3361 49.7021L78.753 34.7301C78.753 34.3489 78.6019 34.1557 78.258 34.1557H77.4242C77.716 33.9625 77.8932 33.8423 77.8932 33.8423C79.9515 32.1608 81.1084 31.0328 83.3282 28.4269C83.5575 28.1606 83.5575 27.9308 83.3282 27.6645L81.0771 25.4085C80.8113 25.1422 80.5456 25.1422 80.2381 25.4085C76.5019 28.923 72.0569 33.5603 65.882 37.9157C65.5745 38.1454 65.538 38.3752 65.7673 38.7199L66.3353 39.7382L66.3301 39.7434Z" fill="#231815"/>
<path d="M118.486 29.4296C118.601 29.0849 118.679 28.7403 118.716 28.4008L118.867 27.0639C118.903 26.7193 118.752 26.5313 118.372 26.5313H98.3618C97.9814 26.5313 97.7886 26.7245 97.7521 27.0639L97.5593 29.7743C97.5593 30.1555 97.7104 30.3487 98.0544 30.3487H112.577C112.958 30.3487 113.072 30.5001 112.958 30.8083C112.041 33.3306 111.311 36.161 109.904 38.6415C108.95 40.2813 108.445 41.1534 105.668 44.1979C105.475 44.5008 105.516 44.7306 105.819 44.9238L107.267 46.104C107.575 46.2973 107.799 46.2973 107.955 46.0257C112.739 42.224 117.163 37.3987 118.492 29.4296H118.486Z" fill="#231815"/>
<path d="M132.447 36.4221L137.251 36.3856H147.162C147.543 36.3856 147.736 36.1923 147.772 35.8529L147.965 33.5238C147.965 33.1791 147.814 32.9911 147.433 32.9911H132.681C132.337 32.9911 132.108 33.1843 132.108 33.5238L131.915 35.8529C131.879 36.0461 131.915 36.1558 131.993 36.2707C132.108 36.3856 132.223 36.4221 132.452 36.4221H132.447Z" fill="#231815"/>
<path d="M141.634 43.7906L142.056 36.9182H137.783L137.288 43.7906H141.634Z" fill="#231815"/>
<path d="M145.646 44.3807L142.092 44.3651H132.066C131.686 44.3651 131.493 44.5165 131.457 44.8612L131.305 47.2268C131.305 47.5715 131.457 47.7595 131.8 47.7595L145.589 46.8717C145.969 46.8717 146.162 46.6785 146.198 46.339L146.141 44.8768C146.177 44.5322 145.99 44.3807 145.646 44.3807Z" fill="#231815"/>
<path d="M184.025 43.258C181.409 41.3989 179.048 39.6808 176.933 38.0619C179.142 34.3959 180.955 30.2913 182.269 27.0222C182.42 26.641 182.498 26.2963 182.534 25.9151L182.612 24.4633C182.649 24.1186 182.498 23.9306 182.117 23.9306H166.26C165.917 23.9306 165.729 24.1239 165.687 24.4633L165.494 27.4034C165.494 27.7846 165.646 27.9361 166.026 27.9361H176.167C176.51 27.9361 176.583 28.1293 176.432 28.4687C174.03 33.7797 171.232 40.2865 163.785 45.3573C163.556 45.5871 163.592 45.8534 163.822 46.0832L165.046 47.3104C165.354 47.5767 165.578 47.5767 165.807 47.3104C169.085 45.5766 170.898 44.4173 173.868 41.6077L175.541 39.827L174.822 40.8766C177.459 43.2736 180.153 46.3129 181.372 47.2007C181.685 47.4096 181.945 47.3626 182.128 47.091L184.171 44.0413C184.379 43.728 184.332 43.4668 184.014 43.2527L184.025 43.258Z" fill="#231815"/>
<path d="M205.384 37.9522C207.891 35.1688 209.178 32.6204 209.214 30.4166C209.282 28.0718 208.636 26.2754 207.281 24.9855C205.958 23.727 204.097 23.116 201.758 23.116C199.251 23.116 197.25 23.7635 195.728 25.0168C194.134 26.3433 193.222 28.2442 193.019 30.6881C192.982 31.0276 193.154 31.1999 193.456 31.1999H196.776C197.115 31.1999 197.287 31.0641 197.318 30.7247C197.453 29.4348 197.896 28.4165 198.641 27.6697C199.423 26.9229 200.439 26.5835 201.758 26.6148C203.993 26.6827 205.077 27.9726 204.941 30.4845C204.905 31.8788 203.993 33.5395 202.195 35.4769C199.35 38.5998 196.844 41.284 194.671 43.4564C194.431 43.6966 194.332 43.9682 194.301 44.2711L194.129 46.4435C194.092 46.7829 194.264 46.9553 194.572 46.9553H206.093C206.395 46.9553 206.567 46.7829 206.567 46.4435L206.739 44.0674C206.776 43.7279 206.64 43.5556 206.333 43.5556H200.741C200.674 43.5556 200.606 43.5191 200.569 43.4198C200.538 43.352 200.538 43.3206 200.606 43.2475C202.028 41.6861 203.623 39.921 205.384 37.9522Z" fill="#231815"/>
<path d="M222.7 23.0115C219.11 23.0115 216.536 24.2022 215.04 26.5417C213.889 28.3747 213.211 31.2626 213.039 35.2001C212.669 43.2475 215.478 47.2529 221.444 47.2529C224.8 47.2529 227.239 46.0988 228.698 43.8219C229.886 42.0568 230.564 39.3726 230.767 35.738C230.803 34.9233 230.835 34.2758 230.835 33.7327C230.835 30.4375 230.324 27.9622 229.276 26.2649C227.989 24.0925 225.785 23.0063 222.705 23.0063L222.7 23.0115ZM225.613 40.8714C224.8 42.8767 223.378 43.8585 221.345 43.8585C218.636 43.8585 217.312 41.4459 217.312 36.6258L217.38 34.9964C217.484 32.3122 217.786 30.38 218.261 29.2259C219.073 27.2572 220.564 26.3067 222.7 26.3381C224.295 26.4059 225.379 27.1527 225.988 28.6463C226.395 29.5967 226.598 31.0224 226.598 32.9598C226.598 36.6258 226.259 39.2734 225.613 40.8714Z" fill="#231815"/>
<path d="M246.691 37.9522C249.198 35.1688 250.485 32.6204 250.522 30.4166C250.589 28.0718 249.943 26.2754 248.588 24.9855C247.265 23.727 245.404 23.116 243.065 23.116C240.558 23.116 238.557 23.7635 237.036 25.0168C235.441 26.3433 234.529 28.2442 234.326 30.6881C234.289 31.0276 234.461 31.1999 234.769 31.1999H238.088C238.427 31.1999 238.599 31.0641 238.63 30.7247C238.766 29.4348 239.209 28.4165 239.954 27.6697C240.735 26.9229 241.751 26.5835 243.07 26.6148C245.305 26.6827 246.389 27.9726 246.254 30.4845C246.222 31.8788 245.305 33.5395 243.508 35.4769C240.662 38.5998 238.156 41.284 235.988 43.4564C235.748 43.6966 235.649 43.9682 235.613 44.2711L235.446 46.4435C235.41 46.7829 235.582 46.9553 235.889 46.9553H247.411C247.718 46.9553 247.885 46.7829 247.885 46.4435L248.057 44.0674C248.088 43.7279 247.953 43.5556 247.65 43.5556H242.059C241.991 43.5556 241.923 43.5191 241.887 43.4198C241.85 43.352 241.85 43.3206 241.918 43.2475C243.341 41.6861 244.935 39.921 246.697 37.9522H246.691Z" fill="#231815"/>
<path d="M263.226 23.1786C260.141 23.1786 257.905 24.3327 256.519 26.6096C255.467 28.3068 254.826 30.9231 254.518 34.3855C254.451 35.4403 254.414 36.4221 254.414 37.3725C254.414 40.4275 254.888 42.7357 255.837 44.3337C257.025 46.3025 259.021 47.3208 261.834 47.3208C266.712 47.3208 269.187 44.7045 269.354 39.4771C269.422 37.3725 268.911 35.7067 267.796 34.4847C266.712 33.294 265.086 32.7196 262.986 32.7509C261.834 32.7875 260.646 33.059 259.495 33.5656C259.391 33.6335 259.292 33.6335 259.187 33.5656C259.12 33.4977 259.052 33.4298 259.052 33.3619C259.151 31.3931 259.458 29.8996 259.901 28.8813C260.579 27.2833 261.73 26.5052 263.325 26.4686C264.951 26.4686 265.831 27.2519 265.967 28.8134C266.003 29.1215 266.17 29.2573 266.509 29.2573H269.526C269.865 29.2573 270 29.1215 270 28.8134C269.797 25.043 267.561 23.1786 263.226 23.1786ZM260.11 36.8294C260.787 36.3856 261.6 36.1819 262.481 36.1819C264.278 36.1819 265.159 37.2681 265.19 39.4771C265.227 40.7356 264.956 41.754 264.409 42.5007C263.799 43.3833 262.882 43.8272 261.662 43.7906C260.511 43.7906 259.698 43.1796 259.224 42.0255C258.885 41.1743 258.75 40.0881 258.817 38.8348C258.885 37.9835 259.328 37.3047 260.104 36.8294H260.11Z" fill="#231815"/>
<path d="M16.6542 49.8327L15.6641 47.8274L14.674 49.8327L12.4594 50.1565L14.0643 51.7231L13.6839 53.9269L15.6641 52.8877L17.6442 53.9269L17.2638 51.7231L18.8636 50.1565L16.6542 49.8327Z" fill="#231815"/>
<path d="M41.6981 50.9502L40.0879 50.7152C39.9785 50.6996 39.8794 50.6317 39.8326 50.5272L39.1134 49.065L38.3943 50.5272C38.3474 50.6265 38.2484 50.6996 38.139 50.7152L36.5288 50.9502L37.6961 52.0887C37.7742 52.167 37.8107 52.2819 37.7951 52.3916L37.5189 54L38.9623 53.2428C39.0613 53.1906 39.1812 53.1906 39.2802 53.2428L40.7236 54L40.4474 52.3916C40.4266 52.2819 40.4631 52.167 40.5464 52.0887L41.7137 50.9502H41.6981Z" fill="#231815"/>
<path d="M62.6357 42.0464C62.6826 42.0203 62.7347 42.0098 62.7816 42.0098C62.8285 42.0098 62.8858 42.0203 62.9275 42.0464L64.2771 42.7566L64.0218 41.2474C64.0061 41.143 64.0374 41.0385 64.1156 40.9654L65.2099 39.9001L63.6987 39.6807C63.5945 39.6651 63.5059 39.6024 63.459 39.5084L62.7816 38.135L62.1041 39.5084C62.0573 39.6024 61.9687 39.6703 61.8644 39.6807L60.3533 39.9001L61.4476 40.9654C61.5205 41.0385 61.557 41.143 61.5414 41.2474L61.286 42.7566L62.6357 42.0464Z" fill="#231815"/>
<path d="M104.219 45.8429L103.323 44.0204L102.426 45.8429C102.364 45.9683 102.244 46.057 102.109 46.0727L100.102 46.3652L101.556 47.7856C101.655 47.8848 101.702 48.0258 101.676 48.1616L101.332 50.1617L103.125 49.2165C103.187 49.1851 103.255 49.1695 103.323 49.1695C103.39 49.1695 103.458 49.1851 103.521 49.2165L105.313 50.1617L104.969 48.1616C104.948 48.0258 104.99 47.8848 105.089 47.7856L106.543 46.3652L104.537 46.0727C104.396 46.0518 104.281 45.9683 104.219 45.8429Z" fill="#231815"/>
<path d="M151.284 44.5844L149.898 44.3807C149.804 44.3651 149.721 44.3076 149.679 44.2188L149.059 42.9603L148.439 44.2188C148.397 44.3076 148.314 44.3651 148.22 44.3807L146.834 44.5844L147.84 45.5662C147.908 45.6341 147.939 45.7281 147.923 45.8273L147.689 47.2112L148.929 46.5584C148.971 46.5375 149.017 46.5271 149.064 46.5271C149.111 46.5271 149.158 46.5375 149.2 46.5584L150.44 47.2112L150.206 45.8273C150.19 45.7333 150.221 45.6341 150.289 45.5662L151.295 44.5844H151.284Z" fill="#231815"/>
<path d="M164.781 47.7229L162.899 47.4514C162.769 47.4305 162.66 47.3521 162.602 47.232L161.763 45.5244L160.925 47.232C160.867 47.3469 160.758 47.4305 160.627 47.4514L158.746 47.7229L160.106 49.0494C160.2 49.1381 160.242 49.2739 160.221 49.3992L159.898 51.274L161.576 50.3915C161.633 50.3601 161.696 50.3445 161.758 50.3445C161.821 50.3445 161.883 50.3601 161.941 50.3915L163.619 51.274L163.295 49.3992C163.275 49.2687 163.316 49.1381 163.41 49.0494L164.77 47.7229H164.781Z" fill="#231815"/>
<path d="M11.7716 48.3496L2.01666 43.2527C1.70921 43.1013 1.48514 43.2162 1.32881 43.5191L0.0729747 46.5009C-0.0781427 46.8821 -0.00518947 47.1119 0.380421 47.2268L10.7815 50.7936C11.1254 50.945 11.3547 50.8301 11.4693 50.5272L12.079 49.0389C12.1936 48.6942 12.079 48.4645 11.7716 48.3496Z" fill="url(#paint0_linear_8005_1810)"/>
<path d="M12.1155 36.9495L3.07972 33.6648C2.73579 33.5133 2.50651 33.6282 2.35539 33.9311L1.43827 36.4534C1.32363 36.7981 1.40179 37.0279 1.74571 37.1428L10.7763 40.5059C11.1202 40.6573 11.3495 40.5424 11.5006 40.1612L12.4177 37.6389C12.5324 37.336 12.4542 37.1062 12.1155 36.9495Z" fill="url(#paint1_linear_8005_1810)"/>
<path d="M2.28246 27.2467L12.6887 31.0641C13.0326 31.179 13.2619 31.1007 13.3766 30.756L14.5595 27.7011C14.6741 27.3929 14.5595 27.1684 14.2155 27.0535L3.92391 23.2361C3.57998 23.1212 3.3507 23.1995 3.23606 23.5442L1.98022 26.5626C1.86558 26.8707 1.98022 27.0953 2.28767 27.2519L2.28246 27.2467Z" fill="url(#paint2_linear_8005_1810)"/>
<path d="M50.5775 35.1897L31.865 35.1531C31.5211 35.1531 31.2918 35.3463 31.2918 35.6858L31.099 38.3961C31.0625 38.7408 31.2501 38.9288 31.594 38.9288L44.6683 38.8922C45.0487 38.8922 45.1633 39.0436 45.0122 39.3883C43.8293 42.2135 42.8705 44.1039 40.5047 47.655C40.3119 47.9631 40.3536 48.2295 40.6558 48.4175L42.1827 49.9998C42.4901 50.2296 42.7559 50.193 42.9435 49.8484C46.8256 46.0362 48.8944 42.9394 50.7234 38.0514C50.8745 37.7433 50.9527 37.4039 50.9527 36.9809L51.0673 35.6806C51.1038 35.3359 50.9162 35.1844 50.5723 35.1844L50.5775 35.1897Z" fill="url(#paint3_linear_8005_1810)"/>
<path d="M34.6476 28.7716H49.629C50.0094 28.7716 50.2023 28.5784 50.2387 28.1972L50.4315 25.4868C50.4315 25.1422 50.2804 24.9542 49.9 24.9542H34.8821C34.5381 24.9542 34.3506 25.1474 34.3506 25.4868L34.1577 28.1972C34.1213 28.5784 34.2724 28.7716 34.6528 28.7716H34.6476Z" fill="url(#paint4_linear_8005_1810)"/>
<path d="M66.3301 39.7434C66.5229 40.0515 66.7105 40.0672 67.1847 39.874C69.8423 38.8243 71.5358 37.9 73.4326 36.7407C73.5473 36.6728 73.6723 36.5944 73.7974 36.5161L73.4952 49.7439C73.4952 50.1251 73.6463 50.2766 73.9902 50.2766H77.7629C78.1433 50.2766 78.3361 50.0834 78.3361 49.7021L78.753 34.7301C78.753 34.3489 78.6019 34.1557 78.258 34.1557H77.4242C77.716 33.9625 77.8932 33.8423 77.8932 33.8423C79.9515 32.1608 81.1084 31.0328 83.3282 28.4269C83.5575 28.1606 83.5575 27.9308 83.3282 27.6645L81.0771 25.4085C80.8113 25.1422 80.5456 25.1422 80.2381 25.4085C76.5019 28.923 72.0569 33.5603 65.882 37.9157C65.5745 38.1454 65.538 38.3752 65.7673 38.7199L66.3353 39.7382L66.3301 39.7434Z" fill="url(#paint5_linear_8005_1810)"/>
<path d="M118.486 29.4296C118.601 29.0849 118.679 28.7403 118.716 28.4008L118.867 27.0639C118.903 26.7193 118.752 26.5313 118.372 26.5313H98.3618C97.9814 26.5313 97.7886 26.7245 97.7521 27.0639L97.5593 29.7743C97.5593 30.1555 97.7104 30.3487 98.0544 30.3487H112.577C112.958 30.3487 113.072 30.5001 112.958 30.8083C112.041 33.3306 111.311 36.161 109.904 38.6415C108.95 40.2813 108.445 41.1534 105.668 44.1979C105.475 44.5008 105.516 44.7306 105.819 44.9238L107.267 46.104C107.575 46.2973 107.799 46.2973 107.955 46.0257C112.739 42.224 117.163 37.3987 118.492 29.4296H118.486Z" fill="url(#paint6_linear_8005_1810)"/>
<path d="M132.447 36.4221L137.251 36.3856H147.162C147.543 36.3856 147.736 36.1923 147.772 35.8529L147.965 33.5238C147.965 33.1791 147.814 32.9911 147.433 32.9911H132.681C132.337 32.9911 132.108 33.1843 132.108 33.5238L131.915 35.8529C131.879 36.0461 131.915 36.1558 131.993 36.2707C132.108 36.3856 132.223 36.4221 132.452 36.4221H132.447Z" fill="url(#paint7_linear_8005_1810)"/>
<path d="M141.634 43.7906L142.056 36.9182H137.783L137.288 43.7906H141.634Z" fill="url(#paint8_linear_8005_1810)"/>
<path d="M145.646 44.3807L142.092 44.3651H132.066C131.686 44.3651 131.493 44.5165 131.457 44.8612L131.305 47.2268C131.305 47.5715 131.457 47.7595 131.8 47.7595L145.589 46.8717C145.969 46.8717 146.162 46.6785 146.198 46.339L146.141 44.8768C146.177 44.5322 145.99 44.3807 145.646 44.3807Z" fill="url(#paint9_linear_8005_1810)"/>
<path d="M184.025 43.258C181.409 41.3989 179.048 39.6808 176.933 38.0619C179.142 34.3959 180.955 30.2913 182.269 27.0222C182.42 26.641 182.498 26.2963 182.534 25.9151L182.612 24.4633C182.649 24.1186 182.498 23.9306 182.117 23.9306H166.26C165.917 23.9306 165.729 24.1239 165.687 24.4633L165.494 27.4034C165.494 27.7846 165.646 27.9361 166.026 27.9361H176.167C176.51 27.9361 176.583 28.1293 176.432 28.4687C174.03 33.7797 171.232 40.2865 163.785 45.3573C163.556 45.5871 163.592 45.8534 163.822 46.0832L165.046 47.3104C165.354 47.5767 165.578 47.5767 165.807 47.3104C169.085 45.5766 170.898 44.4173 173.868 41.6077L175.541 39.827L174.822 40.8766C177.459 43.2736 180.153 46.3129 181.372 47.2007C181.685 47.4096 181.945 47.3626 182.128 47.091L184.171 44.0413C184.379 43.728 184.332 43.4668 184.014 43.2527L184.025 43.258Z" fill="url(#paint10_linear_8005_1810)"/>
<path d="M205.384 37.9522C207.891 35.1688 209.178 32.6204 209.214 30.4166C209.282 28.0718 208.636 26.2754 207.281 24.9855C205.958 23.727 204.097 23.116 201.758 23.116C199.251 23.116 197.25 23.7635 195.728 25.0168C194.134 26.3433 193.222 28.2442 193.019 30.6881C192.982 31.0276 193.154 31.1999 193.456 31.1999H196.776C197.115 31.1999 197.287 31.0641 197.318 30.7247C197.453 29.4348 197.896 28.4165 198.641 27.6697C199.423 26.9229 200.439 26.5835 201.758 26.6148C203.993 26.6827 205.077 27.9726 204.941 30.4845C204.905 31.8788 203.993 33.5395 202.195 35.4769C199.35 38.5998 196.844 41.284 194.671 43.4564C194.431 43.6966 194.332 43.9682 194.301 44.2711L194.129 46.4435C194.092 46.7829 194.264 46.9553 194.572 46.9553H206.093C206.395 46.9553 206.567 46.7829 206.567 46.4435L206.739 44.0674C206.776 43.7279 206.64 43.5556 206.333 43.5556H200.741C200.674 43.5556 200.606 43.5191 200.569 43.4198C200.538 43.352 200.538 43.3206 200.606 43.2475C202.028 41.6861 203.623 39.921 205.384 37.9522Z" fill="url(#paint11_linear_8005_1810)"/>
<path d="M222.7 23.0115C219.11 23.0115 216.536 24.2022 215.04 26.5417C213.889 28.3747 213.211 31.2626 213.039 35.2001C212.669 43.2475 215.478 47.2529 221.444 47.2529C224.8 47.2529 227.239 46.0988 228.698 43.8219C229.886 42.0568 230.564 39.3726 230.767 35.738C230.803 34.9233 230.835 34.2758 230.835 33.7327C230.835 30.4375 230.324 27.9622 229.276 26.2649C227.989 24.0925 225.785 23.0063 222.705 23.0063L222.7 23.0115ZM225.613 40.8714C224.8 42.8767 223.378 43.8585 221.345 43.8585C218.636 43.8585 217.312 41.4459 217.312 36.6258L217.38 34.9964C217.484 32.3122 217.786 30.38 218.261 29.2259C219.073 27.2572 220.564 26.3067 222.7 26.3381C224.295 26.4059 225.379 27.1527 225.988 28.6463C226.395 29.5967 226.598 31.0224 226.598 32.9598C226.598 36.6258 226.259 39.2734 225.613 40.8714Z" fill="url(#paint12_linear_8005_1810)"/>
<path d="M246.691 37.9522C249.198 35.1688 250.485 32.6204 250.522 30.4166C250.589 28.0718 249.943 26.2754 248.588 24.9855C247.265 23.727 245.404 23.116 243.065 23.116C240.558 23.116 238.557 23.7635 237.036 25.0168C235.441 26.3433 234.529 28.2442 234.326 30.6881C234.289 31.0276 234.461 31.1999 234.769 31.1999H238.088C238.427 31.1999 238.599 31.0641 238.63 30.7247C238.766 29.4348 239.209 28.4165 239.954 27.6697C240.735 26.9229 241.751 26.5835 243.07 26.6148C245.305 26.6827 246.389 27.9726 246.254 30.4845C246.222 31.8788 245.305 33.5395 243.508 35.4769C240.662 38.5998 238.156 41.284 235.988 43.4564C235.748 43.6966 235.649 43.9682 235.613 44.2711L235.446 46.4435C235.41 46.7829 235.582 46.9553 235.889 46.9553H247.411C247.718 46.9553 247.885 46.7829 247.885 46.4435L248.057 44.0674C248.088 43.7279 247.953 43.5556 247.65 43.5556H242.059C241.991 43.5556 241.923 43.5191 241.887 43.4198C241.85 43.352 241.85 43.3206 241.918 43.2475C243.341 41.6861 244.935 39.921 246.697 37.9522H246.691Z" fill="url(#paint13_linear_8005_1810)"/>
<path d="M263.226 23.1786C260.141 23.1786 257.905 24.3327 256.519 26.6096C255.467 28.3068 254.826 30.9231 254.518 34.3855C254.451 35.4403 254.414 36.4221 254.414 37.3725C254.414 40.4275 254.888 42.7357 255.837 44.3337C257.025 46.3025 259.021 47.3208 261.834 47.3208C266.712 47.3208 269.187 44.7045 269.354 39.4771C269.422 37.3725 268.911 35.7067 267.796 34.4847C266.712 33.294 265.086 32.7196 262.986 32.7509C261.834 32.7875 260.646 33.059 259.495 33.5656C259.391 33.6335 259.292 33.6335 259.187 33.5656C259.12 33.4977 259.052 33.4298 259.052 33.3619C259.151 31.3931 259.458 29.8996 259.901 28.8813C260.579 27.2833 261.73 26.5052 263.325 26.4686C264.951 26.4686 265.831 27.2519 265.967 28.8134C266.003 29.1215 266.17 29.2573 266.509 29.2573H269.526C269.865 29.2573 270 29.1215 270 28.8134C269.797 25.043 267.561 23.1786 263.226 23.1786ZM260.11 36.8294C260.787 36.3856 261.6 36.1819 262.481 36.1819C264.278 36.1819 265.159 37.2681 265.19 39.4771C265.227 40.7356 264.956 41.754 264.409 42.5007C263.799 43.3833 262.882 43.8272 261.662 43.7906C260.511 43.7906 259.698 43.1796 259.224 42.0255C258.885 41.1743 258.75 40.0881 258.817 38.8348C258.885 37.9835 259.328 37.3047 260.104 36.8294H260.11Z" fill="url(#paint14_linear_8005_1810)"/>
<path d="M16.6542 49.8327L15.6641 47.8274L14.674 49.8327L12.4594 50.1565L14.0643 51.7231L13.6839 53.9269L15.6641 52.8877L17.6442 53.9269L17.2638 51.7231L18.8636 50.1565L16.6542 49.8327Z" fill="url(#paint15_linear_8005_1810)"/>
<path d="M41.6981 50.9502L40.0879 50.7152C39.9785 50.6996 39.8794 50.6317 39.8326 50.5272L39.1134 49.065L38.3943 50.5272C38.3474 50.6265 38.2484 50.6996 38.139 50.7152L36.5288 50.9502L37.6961 52.0887C37.7742 52.167 37.8107 52.2819 37.7951 52.3916L37.5189 54L38.9623 53.2428C39.0613 53.1906 39.1812 53.1906 39.2802 53.2428L40.7236 54L40.4474 52.3916C40.4266 52.2819 40.4631 52.167 40.5464 52.0887L41.7137 50.9502H41.6981Z" fill="url(#paint16_linear_8005_1810)"/>
<path d="M62.6357 42.0464C62.6826 42.0203 62.7347 42.0098 62.7816 42.0098C62.8285 42.0098 62.8858 42.0203 62.9275 42.0464L64.2771 42.7566L64.0218 41.2474C64.0061 41.143 64.0374 41.0385 64.1156 40.9654L65.2099 39.9001L63.6987 39.6807C63.5945 39.6651 63.5059 39.6024 63.459 39.5084L62.7816 38.135L62.1041 39.5084C62.0573 39.6024 61.9687 39.6703 61.8644 39.6807L60.3533 39.9001L61.4476 40.9654C61.5205 41.0385 61.557 41.143 61.5414 41.2474L61.286 42.7566L62.6357 42.0464Z" fill="url(#paint17_linear_8005_1810)"/>
<path d="M104.219 45.8429L103.323 44.0204L102.426 45.8429C102.364 45.9683 102.244 46.057 102.109 46.0727L100.102 46.3652L101.556 47.7856C101.655 47.8848 101.702 48.0258 101.676 48.1616L101.332 50.1617L103.125 49.2165C103.187 49.1851 103.255 49.1695 103.323 49.1695C103.39 49.1695 103.458 49.1851 103.521 49.2165L105.313 50.1617L104.969 48.1616C104.948 48.0258 104.99 47.8848 105.089 47.7856L106.543 46.3652L104.537 46.0727C104.396 46.0518 104.281 45.9683 104.219 45.8429Z" fill="url(#paint18_linear_8005_1810)"/>
<path d="M151.284 44.5844L149.898 44.3807C149.804 44.3651 149.721 44.3076 149.679 44.2188L149.059 42.9603L148.439 44.2188C148.397 44.3076 148.314 44.3651 148.22 44.3807L146.834 44.5844L147.84 45.5662C147.908 45.6341 147.939 45.7281 147.923 45.8273L147.689 47.2112L148.929 46.5584C148.971 46.5375 149.017 46.5271 149.064 46.5271C149.111 46.5271 149.158 46.5375 149.2 46.5584L150.44 47.2112L150.206 45.8273C150.19 45.7333 150.221 45.6341 150.289 45.5662L151.295 44.5844H151.284Z" fill="url(#paint19_linear_8005_1810)"/>
<path d="M164.781 47.7229L162.899 47.4514C162.769 47.4305 162.66 47.3521 162.602 47.232L161.763 45.5244L160.925 47.232C160.867 47.3469 160.758 47.4305 160.627 47.4514L158.746 47.7229L160.106 49.0494C160.2 49.1381 160.242 49.2739 160.221 49.3992L159.898 51.274L161.576 50.3915C161.633 50.3601 161.696 50.3445 161.758 50.3445C161.821 50.3445 161.883 50.3601 161.941 50.3915L163.619 51.274L163.295 49.3992C163.275 49.2687 163.316 49.1381 163.41 49.0494L164.77 47.7229H164.781Z" fill="url(#paint20_linear_8005_1810)"/>
</g>
<defs>
<linearGradient id="paint0_linear_8005_1810" x1="135" y1="54" x2="135" y2="23.0115" gradientUnits="userSpaceOnUse">
<stop stop-color="#DB99C1"/>
<stop offset="0.42" stop-color="#A78DC1"/>
<stop offset="1" stop-color="#66A8DC"/>
</linearGradient>
<linearGradient id="paint1_linear_8005_1810" x1="135" y1="54" x2="135" y2="23.0115" gradientUnits="userSpaceOnUse">
<stop stop-color="#DB99C1"/>
<stop offset="0.42" stop-color="#A78DC1"/>
<stop offset="1" stop-color="#66A8DC"/>
</linearGradient>
<linearGradient id="paint2_linear_8005_1810" x1="135" y1="54" x2="135" y2="23.0115" gradientUnits="userSpaceOnUse">
<stop stop-color="#DB99C1"/>
<stop offset="0.42" stop-color="#A78DC1"/>
<stop offset="1" stop-color="#66A8DC"/>
</linearGradient>
<linearGradient id="paint3_linear_8005_1810" x1="135" y1="54" x2="135" y2="23.0115" gradientUnits="userSpaceOnUse">
<stop stop-color="#DB99C1"/>
<stop offset="0.42" stop-color="#A78DC1"/>
<stop offset="1" stop-color="#66A8DC"/>
</linearGradient>
<linearGradient id="paint4_linear_8005_1810" x1="135" y1="54" x2="135" y2="23.0115" gradientUnits="userSpaceOnUse">
<stop stop-color="#DB99C1"/>
<stop offset="0.42" stop-color="#A78DC1"/>
<stop offset="1" stop-color="#66A8DC"/>
</linearGradient>
<linearGradient id="paint5_linear_8005_1810" x1="135" y1="54" x2="135" y2="23.0115" gradientUnits="userSpaceOnUse">
<stop stop-color="#DB99C1"/>
<stop offset="0.42" stop-color="#A78DC1"/>
<stop offset="1" stop-color="#66A8DC"/>
</linearGradient>
<linearGradient id="paint6_linear_8005_1810" x1="135" y1="54" x2="135" y2="23.0115" gradientUnits="userSpaceOnUse">
<stop stop-color="#DB99C1"/>
<stop offset="0.42" stop-color="#A78DC1"/>
<stop offset="1" stop-color="#66A8DC"/>
</linearGradient>
<linearGradient id="paint7_linear_8005_1810" x1="135" y1="54" x2="135" y2="23.0115" gradientUnits="userSpaceOnUse">
<stop stop-color="#DB99C1"/>
<stop offset="0.42" stop-color="#A78DC1"/>
<stop offset="1" stop-color="#66A8DC"/>
</linearGradient>
<linearGradient id="paint8_linear_8005_1810" x1="135" y1="54" x2="135" y2="23.0115" gradientUnits="userSpaceOnUse">
<stop stop-color="#DB99C1"/>
<stop offset="0.42" stop-color="#A78DC1"/>
<stop offset="1" stop-color="#66A8DC"/>
</linearGradient>
<linearGradient id="paint9_linear_8005_1810" x1="135" y1="54" x2="135" y2="23.0115" gradientUnits="userSpaceOnUse">
<stop stop-color="#DB99C1"/>
<stop offset="0.42" stop-color="#A78DC1"/>
<stop offset="1" stop-color="#66A8DC"/>
</linearGradient>
<linearGradient id="paint10_linear_8005_1810" x1="135" y1="54" x2="135" y2="23.0115" gradientUnits="userSpaceOnUse">
<stop stop-color="#DB99C1"/>
<stop offset="0.42" stop-color="#A78DC1"/>
<stop offset="1" stop-color="#66A8DC"/>
</linearGradient>
<linearGradient id="paint11_linear_8005_1810" x1="135" y1="54" x2="135" y2="23.0115" gradientUnits="userSpaceOnUse">
<stop stop-color="#DB99C1"/>
<stop offset="0.42" stop-color="#A78DC1"/>
<stop offset="1" stop-color="#66A8DC"/>
</linearGradient>
<linearGradient id="paint12_linear_8005_1810" x1="135" y1="54" x2="135" y2="23.0115" gradientUnits="userSpaceOnUse">
<stop stop-color="#DB99C1"/>
<stop offset="0.42" stop-color="#A78DC1"/>
<stop offset="1" stop-color="#66A8DC"/>
</linearGradient>
<linearGradient id="paint13_linear_8005_1810" x1="135" y1="54" x2="135" y2="23.0115" gradientUnits="userSpaceOnUse">
<stop stop-color="#DB99C1"/>
<stop offset="0.42" stop-color="#A78DC1"/>
<stop offset="1" stop-color="#66A8DC"/>
</linearGradient>
<linearGradient id="paint14_linear_8005_1810" x1="135" y1="54" x2="135" y2="23.0115" gradientUnits="userSpaceOnUse">
<stop stop-color="#DB99C1"/>
<stop offset="0.42" stop-color="#A78DC1"/>
<stop offset="1" stop-color="#66A8DC"/>
</linearGradient>
<linearGradient id="paint15_linear_8005_1810" x1="135" y1="54" x2="135" y2="23.0115" gradientUnits="userSpaceOnUse">
<stop stop-color="#DB99C1"/>
<stop offset="0.42" stop-color="#A78DC1"/>
<stop offset="1" stop-color="#66A8DC"/>
</linearGradient>
<linearGradient id="paint16_linear_8005_1810" x1="135" y1="54" x2="135" y2="23.0115" gradientUnits="userSpaceOnUse">
<stop stop-color="#DB99C1"/>
<stop offset="0.42" stop-color="#A78DC1"/>
<stop offset="1" stop-color="#66A8DC"/>
</linearGradient>
<linearGradient id="paint17_linear_8005_1810" x1="135" y1="54" x2="135" y2="23.0115" gradientUnits="userSpaceOnUse">
<stop stop-color="#DB99C1"/>
<stop offset="0.42" stop-color="#A78DC1"/>
<stop offset="1" stop-color="#66A8DC"/>
</linearGradient>
<linearGradient id="paint18_linear_8005_1810" x1="135" y1="54" x2="135" y2="23.0115" gradientUnits="userSpaceOnUse">
<stop stop-color="#DB99C1"/>
<stop offset="0.42" stop-color="#A78DC1"/>
<stop offset="1" stop-color="#66A8DC"/>
</linearGradient>
<linearGradient id="paint19_linear_8005_1810" x1="135" y1="54" x2="135" y2="23.0115" gradientUnits="userSpaceOnUse">
<stop stop-color="#DB99C1"/>
<stop offset="0.42" stop-color="#A78DC1"/>
<stop offset="1" stop-color="#66A8DC"/>
</linearGradient>
<linearGradient id="paint20_linear_8005_1810" x1="135" y1="54" x2="135" y2="23.0115" gradientUnits="userSpaceOnUse">
<stop stop-color="#DB99C1"/>
<stop offset="0.42" stop-color="#A78DC1"/>
<stop offset="1" stop-color="#66A8DC"/>
</linearGradient>
<clipPath id="clip0_8005_1810">
<rect width="270" height="53" fill="white"/>
</clipPath>
</defs>
</svg>
