<svg width="16" height="16" viewBox="0 0 16 16" fill="none" xmlns="http://www.w3.org/2000/svg">
<path d="M15.9608 3.44877C15.8943 3.1127 15.7444 2.79508 15.5256 2.52805C15.4812 2.47198 15.4347 2.42211 15.3839 2.37152C14.9947 1.98027 14.4533 1.75586 13.8986 1.75586H2.10138C1.54041 1.75586 1.01281 1.97461 0.615781 2.37173C0.565531 2.42186 0.518938 2.47223 0.472813 2.53008C0.255 2.79598 0.105719 3.11317 0.0408125 3.4497C0.0136875 3.58186 0 3.7188 0 3.85733V12.1429C0 12.4311 0.0585625 12.7118 0.174656 12.9786C0.275125 13.2156 0.427563 13.4403 0.615656 13.6283C0.663031 13.6754 0.710094 13.7189 0.760344 13.7613C1.13641 14.0728 1.61259 14.2441 2.10138 14.2441H13.8986C14.3905 14.2441 14.8662 14.0721 15.2413 13.7579C15.2914 13.7173 15.3379 13.6747 15.3843 13.6283C15.5662 13.4466 15.7107 13.238 15.8145 13.0078L15.8282 12.975C15.9422 12.7132 16 12.4335 16 12.1429V3.85733C16 3.72061 15.9868 3.58277 15.9608 3.44877ZM1.08822 3.09698C1.11794 3.05348 1.15587 3.00883 1.20428 2.96005C1.44456 2.71989 1.76322 2.58773 2.10134 2.58773H13.8985C14.2396 2.58773 14.5584 2.72011 14.796 2.96052C14.837 3.00198 14.8762 3.04802 14.9104 3.09402L15.0006 3.21527L8.70375 8.70327C8.50962 8.87345 8.25969 8.96711 7.99991 8.96711C7.74269 8.96711 7.49297 8.87367 7.29653 8.70348L1.00594 3.21683L1.08822 3.09698ZM0.836094 12.216C0.832687 12.1935 0.831906 12.1684 0.831906 12.1429V4.02889L5.71847 8.29173L0.881219 12.5093L0.836094 12.216ZM14.5281 13.245C14.339 13.3541 14.1212 13.412 13.8986 13.412H2.10138C1.87866 13.412 1.66094 13.3541 1.47194 13.245L1.27419 13.1304L6.27219 8.77477L6.81994 9.2512C7.1485 9.53645 7.5675 9.6937 7.99997 9.6937C8.43403 9.6937 8.85372 9.53645 9.18206 9.2512L9.72959 8.77455L14.7259 13.1306L14.5281 13.245ZM15.1679 12.1429C15.1679 12.168 15.1674 12.1928 15.1643 12.2149L15.1209 12.5109L10.2816 8.29402L15.1679 4.03095V12.1429Z" fill="white"/>
</svg>
