<svg width="120" height="32" viewBox="0 0 120 32" fill="none" xmlns="http://www.w3.org/2000/svg">
<g clip-path="url(#clip0_8005_1729)">
<path d="M60 0C55.658 0 55.112 0.02 53.406 0.096C51.7 0.176 50.538 0.444 49.52 0.84C48.4517 1.24065 47.4843 1.8708 46.686 2.686C45.8708 3.48428 45.2407 4.45169 44.84 5.52C44.444 6.536 44.174 7.7 44.096 9.4C44.02 11.11 44 11.654 44 16.002C44 20.346 44.02 20.89 44.096 22.596C44.176 24.3 44.444 25.462 44.84 26.48C45.25 27.532 45.796 28.424 46.686 29.314C47.574 30.204 48.466 30.752 49.518 31.16C50.538 31.556 51.698 31.826 53.402 31.904C55.11 31.98 55.654 32 60 32C64.346 32 64.888 31.98 66.596 31.904C68.298 31.824 69.464 31.556 70.482 31.16C71.5496 30.7591 72.5163 30.129 73.314 29.314C74.204 28.424 74.75 27.532 75.16 26.48C75.554 25.462 75.824 24.3 75.904 22.596C75.98 20.89 76 20.346 76 16C76 11.654 75.98 11.11 75.904 9.402C75.824 7.7 75.554 6.536 75.16 5.52C74.7593 4.45169 74.1292 3.48428 73.314 2.686C72.5157 1.8708 71.5483 1.24065 70.48 0.84C69.46 0.444 68.296 0.174 66.594 0.096C64.886 0.02 64.344 0 59.996 0H60ZM58.566 2.884H60.002C64.274 2.884 64.78 2.898 66.466 2.976C68.026 3.046 68.874 3.308 69.438 3.526C70.184 3.816 70.718 4.164 71.278 4.724C71.838 5.284 72.184 5.816 72.474 6.564C72.694 7.126 72.954 7.974 73.024 9.534C73.102 11.22 73.118 11.726 73.118 15.996C73.118 20.266 73.102 20.774 73.024 22.46C72.954 24.02 72.692 24.866 72.474 25.43C72.2157 26.1238 71.8065 26.7516 71.276 27.268C70.716 27.828 70.184 28.174 69.436 28.464C68.876 28.684 68.028 28.944 66.466 29.016C64.78 29.092 64.274 29.11 60.002 29.11C55.73 29.11 55.222 29.092 53.536 29.016C51.976 28.944 51.13 28.684 50.566 28.464C49.8717 28.2065 49.2432 27.798 48.726 27.268C48.1945 26.7512 47.7847 26.1227 47.526 25.428C47.308 24.866 47.046 24.018 46.976 22.458C46.9 20.772 46.884 20.266 46.884 15.992C46.884 11.718 46.9 11.216 46.976 9.53C47.048 7.97 47.308 7.122 47.528 6.558C47.818 5.812 48.166 5.278 48.726 4.718C49.286 4.158 49.818 3.812 50.566 3.522C51.13 3.302 51.976 3.042 53.536 2.97C55.012 2.902 55.584 2.882 58.566 2.88V2.884ZM68.542 5.54C68.2899 5.54 68.0402 5.58966 67.8072 5.68615C67.5743 5.78264 67.3626 5.92407 67.1844 6.10236C67.0061 6.28064 66.8646 6.4923 66.7682 6.72525C66.6717 6.95819 66.622 7.20786 66.622 7.46C66.622 7.71214 66.6717 7.96181 66.7682 8.19475C66.8646 8.4277 67.0061 8.63936 67.1844 8.81765C67.3626 8.99593 67.5743 9.13736 67.8072 9.23385C68.0402 9.33034 68.2899 9.38 68.542 9.38C69.0512 9.38 69.5396 9.17772 69.8996 8.81765C70.2597 8.45757 70.462 7.96922 70.462 7.46C70.462 6.95078 70.2597 6.46242 69.8996 6.10236C69.5396 5.74229 69.0512 5.54 68.542 5.54ZM60.002 7.784C58.9121 7.767 57.8298 7.96697 56.818 8.37228C55.8061 8.77759 54.885 9.38014 54.1083 10.1448C53.3316 10.9096 52.7147 11.8211 52.2937 12.8265C51.8726 13.8319 51.6558 14.911 51.6558 16.001C51.6558 17.091 51.8726 18.1701 52.2937 19.1755C52.7147 20.1809 53.3316 21.0924 54.1083 21.8572C54.885 22.6219 55.8061 23.2244 56.818 23.6297C57.8298 24.035 58.9121 24.235 60.002 24.218C62.1591 24.1843 64.2164 23.3038 65.73 21.7665C67.2435 20.2292 68.0918 18.1583 68.0918 16.001C68.0918 13.8437 67.2435 11.7728 65.73 10.2355C64.2164 8.69817 62.1591 7.81765 60.002 7.784ZM60.002 10.666C60.7025 10.666 61.3961 10.804 62.0432 11.072C62.6904 11.3401 63.2784 11.733 63.7737 12.2283C64.269 12.7236 64.6619 13.3116 64.93 13.9588C65.198 14.6059 65.336 15.2995 65.336 16C65.336 16.7005 65.198 17.3941 64.93 18.0412C64.6619 18.6884 64.269 19.2764 63.7737 19.7717C63.2784 20.267 62.6904 20.6599 62.0432 20.928C61.3961 21.196 60.7025 21.334 60.002 21.334C58.5873 21.334 57.2306 20.772 56.2303 19.7717C55.23 18.7714 54.668 17.4147 54.668 16C54.668 14.5853 55.23 13.2286 56.2303 12.2283C57.2306 11.228 58.5873 10.666 60.002 10.666Z" fill="#0B5AB1"/>
</g>
<g clip-path="url(#clip1_8005_1729)">
<path d="M120 16.098C120 7.20603 112.836 -0.00196838 104 -0.00196838C95.1601 3.16163e-05 87.9961 7.20603 87.9961 16.1C87.9961 24.134 93.8481 30.794 101.496 32.002V20.752H97.4361V16.1H101.5V12.55C101.5 8.51603 103.89 6.28803 107.544 6.28803C109.296 6.28803 111.126 6.60203 111.126 6.60203V10.562H109.108C107.122 10.562 106.502 11.804 106.502 13.078V16.098H110.938L110.23 20.75H106.5V32C114.148 30.792 120 24.132 120 16.098Z" fill="#0B5AB1"/>
</g>
<path d="M25.2 1.5H30.108L19.388 13.784L32 30.5H22.126L14.392 20.36L5.542 30.5H0.632L12.098 17.36L0 1.5H10.126L17.116 10.766L25.2 1.5ZM23.48 27.556H26.2L8.646 4.29H5.73L23.48 27.556Z" fill="#0B5AB1"/>
<defs>
<clipPath id="clip0_8005_1729">
<rect width="32" height="32" fill="white" transform="translate(44)"/>
</clipPath>
<clipPath id="clip1_8005_1729">
<rect width="32" height="32" fill="white" transform="translate(88)"/>
</clipPath>
</defs>
</svg>
