<svg width="42" height="12" viewBox="0 0 42 12" fill="none" xmlns="http://www.w3.org/2000/svg">
<path d="M0.896084 11.84C0.650751 11.84 0.437417 11.7493 0.256084 11.568C0.0854174 11.3866 8.40425e-05 11.1733 8.40425e-05 10.928V1.07197C8.40425e-05 0.826632 0.0854174 0.613298 0.256084 0.431965C0.437417 0.250632 0.650751 0.159966 0.896084 0.159966H1.24808C1.85608 0.159966 2.30408 0.426632 2.59208 0.959966L6.54408 8.09597C6.54408 8.10663 6.54942 8.11197 6.56008 8.11197C6.57075 8.11197 6.57608 8.10663 6.57608 8.09597V1.07197C6.57608 0.826632 6.66675 0.613298 6.84808 0.431965C7.02942 0.250632 7.24275 0.159966 7.48808 0.159966H7.84008C8.08542 0.159966 8.29342 0.250632 8.46408 0.431965C8.64542 0.613298 8.73608 0.826632 8.73608 1.07197V10.928C8.73608 11.1733 8.64542 11.3866 8.46408 11.568C8.29342 11.7493 8.08542 11.84 7.84008 11.84H7.48808C6.88008 11.84 6.43208 11.5733 6.14408 11.04L2.19208 3.90397C2.19208 3.8933 2.18675 3.88797 2.17608 3.88797C2.16542 3.88797 2.16008 3.8933 2.16008 3.90397V10.928C2.16008 11.1733 2.06942 11.3866 1.88808 11.568C1.70675 11.7493 1.49342 11.84 1.24808 11.84H0.896084ZM12.1777 11.84C11.9324 11.84 11.719 11.7493 11.5377 11.568C11.3564 11.3866 11.2657 11.1733 11.2657 10.928V1.07197C11.2657 0.826632 11.3564 0.613298 11.5377 0.431965C11.719 0.250632 11.9324 0.159966 12.1777 0.159966H17.6177C17.863 0.159966 18.0764 0.250632 18.2577 0.431965C18.439 0.613298 18.5297 0.826632 18.5297 1.07197C18.5297 1.3173 18.439 1.53063 18.2577 1.71197C18.0764 1.88263 17.863 1.96797 17.6177 1.96797H13.6497C13.5537 1.96797 13.5057 2.01597 13.5057 2.11197V4.68797C13.5057 4.78397 13.5537 4.83197 13.6497 4.83197H17.3457C17.591 4.83197 17.7937 4.9173 17.9537 5.08797C18.1244 5.25863 18.2097 5.4613 18.2097 5.69597C18.2097 5.93063 18.1244 6.1333 17.9537 6.30397C17.7937 6.46397 17.591 6.54397 17.3457 6.54397H13.6497C13.5537 6.54397 13.5057 6.59197 13.5057 6.68797V9.88797C13.5057 9.98397 13.5537 10.032 13.6497 10.032H17.6177C17.863 10.032 18.0764 10.1226 18.2577 10.304C18.439 10.4746 18.5297 10.6826 18.5297 10.928C18.5297 11.1733 18.439 11.3866 18.2577 11.568C18.0764 11.7493 17.863 11.84 17.6177 11.84H12.1777ZM22.3787 10.944L20.3307 1.05597C20.2774 0.821299 20.3254 0.613298 20.4747 0.431965C20.6347 0.250632 20.832 0.159966 21.0667 0.159966H21.5307C21.7974 0.159966 22.0267 0.245299 22.2187 0.415965C22.4107 0.586632 22.528 0.799966 22.5707 1.05597L23.8987 9.47197C23.8987 9.48263 23.904 9.48797 23.9147 9.48797C23.936 9.48797 23.9467 9.48263 23.9467 9.47197L25.2267 1.05597C25.2694 0.799966 25.3867 0.586632 25.5787 0.415965C25.7707 0.245299 26 0.159966 26.2667 0.159966H27.2267C27.4934 0.159966 27.7227 0.245299 27.9147 0.415965C28.1067 0.586632 28.224 0.799966 28.2667 1.05597L29.5627 9.47197C29.5627 9.48263 29.568 9.48797 29.5787 9.48797C29.5894 9.48797 29.5947 9.48263 29.5947 9.47197L30.9227 1.05597C30.9654 0.799966 31.0827 0.586632 31.2747 0.415965C31.4667 0.245299 31.696 0.159966 31.9627 0.159966H32.3627C32.5974 0.159966 32.7894 0.250632 32.9387 0.431965C33.088 0.613298 33.1414 0.821299 33.0987 1.05597L31.0507 10.944C30.9974 11.2 30.8694 11.4133 30.6667 11.584C30.464 11.7546 30.2294 11.84 29.9627 11.84H29.1147C28.848 11.84 28.6134 11.7546 28.4107 11.584C28.2187 11.4133 28.1014 11.2 28.0587 10.944L26.7307 2.52797C26.7307 2.5173 26.7254 2.51197 26.7147 2.51197C26.704 2.51197 26.6987 2.5173 26.6987 2.52797L25.3707 10.944C25.328 11.2 25.2054 11.4133 25.0027 11.584C24.8107 11.7546 24.5814 11.84 24.3147 11.84H23.4667C23.2 11.84 22.9654 11.7546 22.7627 11.584C22.56 11.4133 22.432 11.2 22.3787 10.944ZM37.8571 6.91197C36.5771 6.4853 35.6491 5.96797 35.0731 5.35997C34.5078 4.75197 34.2251 4.01597 34.2251 3.15197C34.2251 2.1813 34.5504 1.4133 35.2011 0.847965C35.8518 0.282632 36.7638 -3.43323e-05 37.9371 -3.43323e-05C38.9291 -3.43323e-05 39.7931 0.111965 40.5291 0.335965C40.7851 0.410632 40.9878 0.565299 41.1371 0.799965C41.2971 1.02397 41.3771 1.27463 41.3771 1.55197V1.69597C41.3771 1.89863 41.2864 2.05863 41.1051 2.17597C40.9238 2.28263 40.7371 2.29863 40.5451 2.22397C39.7451 1.91463 38.9291 1.75996 38.0971 1.75996C37.5638 1.75996 37.1584 1.88263 36.8811 2.12796C36.6038 2.3733 36.4651 2.71463 36.4651 3.15197C36.4651 3.91997 36.9664 4.4693 37.9691 4.79997C39.4091 5.25863 40.4064 5.7813 40.9611 6.36797C41.5264 6.95463 41.8091 7.71197 41.8091 8.63997C41.8091 10.88 40.4278 12 37.6651 12C36.8011 12 36.0171 11.8666 35.3131 11.6C35.0571 11.504 34.8544 11.3386 34.7051 11.104C34.5664 10.8693 34.4971 10.608 34.4971 10.32V10.128C34.4971 9.9253 34.5824 9.7813 34.7531 9.69597C34.9238 9.59997 35.0998 9.59463 35.2811 9.67997C35.9851 10.032 36.7264 10.208 37.5051 10.208C38.8598 10.208 39.5371 9.69597 39.5371 8.67197C39.5371 8.25597 39.4091 7.91463 39.1531 7.64797C38.8971 7.37063 38.4651 7.1253 37.8571 6.91197Z" fill="#6BA6E8"/>
</svg>
